<svg version="1.2" baseProfile="tiny-ps" xmlns="http://www.w3.org/2000/svg" viewBox="0 0 107 61" width="107" height="61"><defs></defs>
	<style>
		tspan { white-space:pre }
		.shp0 { fill: #aee9e2;stroke: #2fc2b0 } 
		.shp1 { fill: none } 
		.shp2 {fill: #2fc2b0;left:10px }
	</style>
	<path id="Layer" class="shp0" d="M8.9 0.5L98.1 0.5C102.7 0.5 106.5 4.3 106.5 8.9L106.5 52.1C106.5 56.7 102.7 60.5 98.1 60.5L8.9 60.5C4.3 60.5 0.5 56.7 0.5 52.1L0.5 8.9C0.5 4.3 4.3 0.5 8.9 0.5Z" />
	<!-- <use  href="#img1" transform="matrix(0.185,0,0,0.185,35,12)"/> -->
	<path id="Layer" class="shp1" d="M2.44 0L977.68 0L977.68 975.24L2.44 975.24L2.44 0Z" />
	<path fill-rule="evenodd" class="shp2" d="M42.9 25.33L63.34 25.33L63.34 40.75C63.34 41.6 62.58 42.29 61.64 42.29L59.94 42.29L59.94 47.69C59.94 48.97 58.8 50 57.38 50C55.97 50 54.83 48.97 54.83 47.69L54.83 42.29L51.42 42.29L51.42 47.69C51.42 48.97 50.28 50 48.87 50C47.45 50 46.31 48.97 46.31 47.69L46.31 42.29L44.61 42.29C43.67 42.29 42.9 41.6 42.9 40.75L42.9 25.33ZM38.65 25.33C40.06 25.33 41.2 26.37 41.2 27.65L41.2 38.44C41.2 39.72 40.06 40.75 38.65 40.75C37.23 40.75 36.09 39.72 36.09 38.44L36.09 27.65C36.09 26.37 37.23 25.33 38.65 25.33ZM67.6 25.33C69.01 25.33 70.16 26.37 70.16 27.65L70.16 38.44C70.16 39.72 69.01 40.75 67.6 40.75C66.19 40.75 65.05 39.72 65.05 38.44L65.05 27.65C65.05 26.37 66.19 25.33 67.6 25.33ZM59.14 16.33C61.68 18.01 63.34 20.73 63.34 23.79L42.9 23.79C42.9 20.73 44.56 18.02 47.09 16.33L44.85 14.31C44.78 14.24 44.71 14.16 44.67 14.07C44.63 13.97 44.61 13.87 44.61 13.77C44.61 13.67 44.63 13.56 44.67 13.47C44.71 13.38 44.78 13.29 44.85 13.23C44.94 13.15 45.03 13.1 45.13 13.06C45.24 13.02 45.35 13 45.46 13C45.57 13 45.67 13.02 45.78 13.06C45.88 13.1 45.97 13.15 46.06 13.23L48.59 15.51C49.96 14.9 51.49 14.54 53.12 14.54C53.51 14.54 53.9 14.56 54.28 14.6C54.67 14.64 55.05 14.71 55.43 14.79C55.81 14.87 56.19 14.97 56.55 15.09C56.92 15.21 57.28 15.35 57.64 15.51L60.16 13.23C60.24 13.16 60.34 13.11 60.44 13.07C60.54 13.03 60.65 13.01 60.76 13.01C60.87 13.01 60.98 13.03 61.08 13.07C61.18 13.11 61.28 13.16 61.36 13.23C61.44 13.3 61.5 13.38 61.54 13.48C61.59 13.57 61.61 13.67 61.61 13.78C61.61 13.88 61.59 13.98 61.54 14.08C61.5 14.17 61.44 14.25 61.36 14.32L59.14 16.33L59.14 16.33ZM49.72 19.17L48.01 19.17L48.01 20.71L49.72 20.71L49.72 19.17ZM58.23 19.17L56.53 19.17L56.53 20.71L58.23 20.71L58.23 19.17Z" />
</svg>