<svg version="1.2" baseProfile="tiny-ps" xmlns="http://www.w3.org/2000/svg" viewBox="0 0 107 61" width="107" height="61">
	<style>
		tspan { white-space:pre }
		.shp0 { fill: #e8fcfa;stroke: #1653ab } 
		.shp1 { fill: #ff0000 } 
		.shp2 { fill: #6699ff } 
		.shp3 { fill: #ff0000 } 
		.shp4 { fill: #6699ff }
	</style>
	<path id="Layer" class="shp0" d="M8.9 0.5L98.1 0.5C102.7 0.5 106.5 4.3 106.5 8.9L106.5 52.1C106.5 56.7 102.7 60.5 98.1 60.5L8.9 60.5C4.3 60.5 0.5 56.7 0.5 52.1L0.5 8.9C0.5 4.3 4.3 0.5 8.9 0.5Z" />
	<path id="Layer" class="shp1" d="M558.08 472.06C606.21 525.31 544.77 575.49 544.77 575.49C544.77 575.49 664.58 514.05 610.3 436.22C559.1 364.54 519.17 328.7 733.18 203.78C733.18 204.8 397.31 289.79 558.08 472.06" />
	<path id="Layer" class="shp1" d="M610.3 5.12C610.3 5.12 711.68 106.5 514.05 263.17C356.35 389.12 478.21 460.8 514.05 543.74C420.86 459.78 354.3 386.05 399.36 317.44C463.87 216.06 651.26 166.91 610.3 5.12Z" />
	<path id="Layer" class="shp2" d="M720.9 757.76C904.19 662.53 819.2 569.34 760.83 582.66C745.47 585.73 739.33 587.78 739.33 587.78C739.33 587.78 744.45 579.58 755.71 576.51C873.47 535.55 963.58 697.34 717.82 762.88C716.8 762.88 719.87 759.81 720.9 757.76M382.98 796.67C382.98 796.67 345.09 818.18 409.6 826.37C486.4 834.56 527.36 834.56 612.35 818.18C612.35 818.18 635.9 833.54 665.6 844.8C474.11 925.7 232.45 839.68 382.98 796.67M359.42 690.18C359.42 690.18 316.42 721.92 382.98 728.06C465.92 736.26 532.48 738.3 644.1 714.75C644.1 714.75 660.48 731.14 685.06 739.33C453.63 807.94 194.56 744.45 359.42 690.18" />
	<path id="Layer" class="shp2" d="M811.01 876.54C811.01 876.54 838.66 900.1 779.26 917.5C667.65 952.32 318.46 962.56 221.18 919.55C186.37 904.19 252.93 883.71 272.38 878.59C293.89 873.47 307.2 875.52 307.2 875.52C268.29 846.85 55.3 927.74 199.68 951.3C589.82 1013.76 912.38 922.62 811.01 876.54M400.38 578.56C400.38 578.56 222.21 621.57 336.9 634.88C386.05 641.02 483.33 640 572.42 631.81C646.14 625.66 719.87 612.35 719.87 612.35C719.87 612.35 693.25 623.62 674.82 636.93C493.57 685.06 144.38 663.55 244.74 613.38C332.8 573.44 400.38 578.56 400.38 578.56Z" />
	<path id="Layer" class="shp2" d="M418.82 1015.81C594.94 1027.07 865.28 1009.66 872.45 925.7C872.45 925.7 859.14 957.44 726.02 982.02C575.49 1009.66 389.12 1006.59 279.55 988.16C281.6 989.18 304.13 1008.64 418.82 1015.81" />
	<path id="Layer" class="shp3" d="M54.89 28.36C56.86 30.55 54.34 32.6 54.34 32.6C54.34 32.6 59.26 30.08 57.03 26.89C54.93 23.95 53.29 22.48 62.07 17.36C62.07 17.4 48.3 20.89 54.89 28.36" />
	<path id="Layer" class="shp3" d="M57.03 9.21C57.03 9.21 61.19 13.37 53.08 19.79C46.62 24.96 51.61 27.9 53.08 31.3C49.26 27.86 46.53 24.83 48.38 22.02C51.03 17.86 58.71 15.85 57.03 9.21Z" />
	<path id="Layer" class="shp4" d="M61.57 40.08C69.09 36.17 65.6 32.35 63.21 32.9C62.58 33.02 62.32 33.11 62.32 33.11C62.32 33.11 62.53 32.77 63 32.65C67.83 30.97 71.52 37.6 61.44 40.29C61.4 40.29 61.53 40.16 61.57 40.08M47.71 41.68C47.71 41.68 46.15 42.56 48.8 42.89C51.95 43.23 53.63 43.23 57.12 42.56C57.12 42.56 58.08 43.19 59.3 43.65C51.45 46.97 41.53 43.44 47.71 41.68M46.74 37.31C46.74 37.31 44.98 38.61 47.71 38.86C51.11 39.2 53.84 39.28 58.42 38.32C58.42 38.32 59.09 38.99 60.1 39.32C50.61 42.14 39.98 39.53 46.74 37.31" />
	<path id="Layer" class="shp4" d="M65.26 44.95C65.26 44.95 66.4 45.92 63.96 46.63C59.38 48.06 45.06 48.48 41.07 46.72C39.64 46.09 42.37 45.25 43.17 45.04C44.05 44.83 44.6 44.91 44.6 44.91C43 43.73 34.27 47.05 40.19 48.02C56.19 50.58 69.42 46.84 65.26 44.95M48.42 32.73C48.42 32.73 41.11 34.49 45.82 35.04C47.83 35.29 51.82 35.25 55.48 34.91C58.5 34.66 61.53 34.12 61.53 34.12C61.53 34.12 60.43 34.58 59.68 35.12C52.24 37.1 37.92 36.22 42.04 34.16C45.65 32.52 48.42 32.73 48.42 32.73Z" />
	<path id="Layer" class="shp4" d="M49.18 50.66C56.4 51.13 67.49 50.41 67.78 46.97C67.78 46.97 67.24 48.27 61.78 49.28C55.6 50.41 47.96 50.29 43.47 49.53C43.55 49.57 44.47 50.37 49.18 50.66" />
</svg>