<svg version="1.2" baseProfile="tiny-ps" xmlns="http://www.w3.org/2000/svg" viewBox="0 0 107 60" width="107" height="60">
	<style>
		tspan { white-space:pre }
		.shp0 { fill: #d5ecb9;stroke: #82cd29;stroke-width: 0.992 } 
		.shp1 { fill: #689f63 } 
		.shp2 { fill: #689f63 } 
		.shp3 { fill: #231815 } 
	</style>
	<g id="图层_1-2">
		<path id="Layer" class="shp0" d="M8.9 0.49L98.1 0.49C102.7 0.49 106.5 4.23 106.5 8.75L106.5 51.25C106.5 55.77 102.7 59.51 98.1 59.51L8.9 59.51C4.3 59.51 0.5 55.77 0.5 51.25L0.5 8.75C0.5 4.23 4.3 0.49 8.9 0.49Z" />
		<path id="Layer" class="shp1" d="M277.9 395.51C274.9 395.51 272 394.72 269.4 393.25L242.4 377.51C238.4 375.25 240.3 374.46 241.7 374.07C247.1 372.2 248.2 371.8 253.9 368.56C254.5 368.26 255.3 368.36 255.9 368.66L276.7 380.75C277.4 381.15 278.5 381.15 279.2 380.75L360.1 334.82C360.8 334.43 361.3 333.54 361.3 332.66L361.3 240.79C361.3 239.9 360.8 239.02 360 238.62L279.1 192.69C278.4 192.3 277.4 192.3 276.6 192.69L195.8 238.72C195 239.11 194.5 240 194.5 240.89L194.5 332.75C194.5 333.64 195 334.43 195.8 334.92L218 347.51C230 353.41 237.4 346.43 237.4 339.44L237.4 248.75C237.4 247.48 238.4 246.49 239.7 246.49L249.9 246.49C251.2 246.49 252.2 247.48 252.2 248.75L252.2 339.44C252.2 355.18 243.5 364.33 228.2 364.33C223.5 364.33 219.8 364.33 209.5 359.31L188.3 347.31C183.1 344.36 179.8 338.75 179.8 332.75L179.8 240.89C179.8 234.89 183 229.38 188.3 226.43L269.3 180.49C274.4 177.64 281.2 177.64 286.3 180.49L367.2 226.43C372.4 229.38 375.7 234.98 375.7 240.89L375.7 332.75C375.7 338.75 372.4 344.26 367.2 347.21L286.3 393.15C283.8 394.72 280.8 395.41 277.9 395.51Z" />
		<path id="Layer" fill-rule="evenodd" class="shp1" d="M846.6 452.66C846 452.95 845.6 453.64 845.6 454.33L845.6 473.02C845.6 473.7 846 474.3 846.6 474.69L863.1 484.03C863.7 484.43 864.5 484.43 865.1 484.03L881.6 474.69C882.2 474.39 882.6 473.7 882.6 473.02L882.6 454.33C882.6 453.64 882.2 453.05 881.6 452.66L865.1 443.31C864.5 442.92 863.7 442.92 863.1 443.31L846.6 452.66ZM487.3 408.59C487.2 408.49 487.1 408.39 486.9 408.3C486.7 408.1 486.4 407.9 486.2 407.7C486.1 407.61 486.1 407.61 486 407.61L485.1 407.02L429.2 375.25L420.3 370.23L399.7 358.52C398.8 358.03 397.9 357.74 397 357.44C396.2 357.25 395.4 357.15 394.6 357.15L393.5 357.15C393.3 357.15 393.1 357.25 392.9 357.25C392.7 357.25 392.5 357.34 392.4 357.34C392.2 357.44 391.9 357.44 391.7 357.54C391.6 357.54 391.4 357.64 391.3 357.64C391 357.74 390.8 357.84 390.6 357.93L390.5 357.93C390.2 358.03 389.9 358.23 389.6 358.43L323.8 395.8L304.5 406.72L304.3 406.82C301.1 408.59 299.1 411.93 299.1 415.57L299.1 512.56C299.1 514.82 299.9 516.98 301.2 518.75C301.4 519.05 301.7 519.34 302 519.64L302.2 519.84C302.4 520.03 302.7 520.23 302.9 520.52L303.1 520.72C303.4 521.02 303.8 521.21 304.2 521.41L378.6 563.7L389.6 569.9C390.5 570.39 391.4 570.79 392.4 570.98C392.6 570.98 392.8 571.08 392.9 571.08C393.2 571.08 393.4 571.18 393.7 571.18C394 571.18 394.2 571.18 394.5 571.28L394.8 571.28C395.2 571.28 395.5 571.28 395.9 571.18L396.3 571.18C396.6 571.18 396.9 571.08 397.2 570.98C397.3 570.98 397.4 570.98 397.5 570.89L397.7 570.89L398.6 570.59C398.7 570.59 398.7 570.59 398.8 570.49L400 569.9L485.3 521.41C487.9 519.93 489.7 517.28 490.3 514.43C490.4 513.84 490.5 513.25 490.5 512.66L490.5 415.67C490.3 413.02 489.3 410.56 487.5 408.79L487.3 408.59Z" />
		<path id="Layer" class="shp0" d="M52.79 41.25C52.67 41.25 52.55 41.22 52.44 41.16L51.33 40.5C51.17 40.41 51.25 40.38 51.31 40.36C51.53 40.28 51.57 40.27 51.81 40.13C51.83 40.12 51.86 40.12 51.89 40.13L52.74 40.64C52.77 40.66 52.82 40.66 52.84 40.64L56.16 38.72C56.19 38.71 56.21 38.67 56.21 38.63L56.21 34.8C56.21 34.77 56.19 34.73 56.16 34.71L52.84 32.8C52.81 32.78 52.77 32.78 52.74 32.8L49.42 34.72C49.39 34.73 49.37 34.77 49.37 34.81L49.37 38.64C49.37 38.67 49.39 38.71 49.42 38.73L50.33 39.25C50.83 39.5 51.13 39.21 51.13 38.92L51.13 35.14C51.13 35.08 51.17 35.04 51.22 35.04L51.64 35.04C51.7 35.04 51.74 35.08 51.74 35.14L51.74 38.92C51.74 39.57 51.38 39.95 50.75 39.95C50.56 39.95 50.41 39.95 49.99 39.75L49.12 39.24C48.9 39.12 48.77 38.89 48.77 38.64L48.77 34.81C48.77 34.56 48.9 34.33 49.12 34.2L52.44 32.29C52.65 32.17 52.93 32.17 53.14 32.29L56.45 34.2C56.67 34.33 56.8 34.56 56.8 34.81L56.8 38.64C56.8 38.89 56.67 39.12 56.45 39.24L53.14 41.16C53.03 41.22 52.91 41.25 52.79 41.25Z" />
			<path id="Layer" fill-rule="evenodd" class="shp2" d="M53.82 38.61C52.36 38.61 52.06 37.94 52.06 37.39C52.06 37.33 52.1 37.29 52.16 37.29L52.59 37.29C52.63 37.29 52.67 37.33 52.68 37.37C52.75 37.81 52.94 38.03 53.82 38.03C54.52 38.03 54.81 37.87 54.81 37.5C54.81 37.29 54.73 37.13 53.64 37.02C52.73 36.93 52.17 36.73 52.17 36C52.17 35.34 52.73 34.94 53.68 34.94C54.74 34.94 55.26 35.31 55.33 36.1C55.34 36.13 55.33 36.15 55.31 36.17C55.29 36.19 55.26 36.2 55.24 36.2L54.81 36.2C54.76 36.2 54.73 36.17 54.71 36.13C54.61 35.67 54.36 35.52 53.68 35.52C52.91 35.52 52.82 35.79 52.82 35.98C52.82 36.23 52.93 36.3 53.96 36.43C54.98 36.57 55.47 36.76 55.47 37.47C55.47 38.19 54.86 38.61 53.81 38.61M58.59 34.6C58.59 34.95 58.31 35.24 57.95 35.24C57.61 35.24 57.31 34.96 57.31 34.6C57.31 34.24 57.61 33.96 57.95 33.96C58.3 33.96 58.59 34.24 58.59 34.6ZM57.42 34.6C57.42 34.9 57.66 35.14 57.95 35.14C58.25 35.14 58.49 34.89 58.49 34.6C58.49 34.3 58.25 34.07 57.95 34.07C57.66 34.06 57.42 34.3 57.42 34.6ZM57.72 34.25L57.96 34.25C58.05 34.25 58.21 34.25 58.21 34.43C58.21 34.57 58.13 34.59 58.08 34.61C58.18 34.62 58.18 34.68 58.2 34.77C58.2 34.83 58.21 34.93 58.23 34.96L58.08 34.96C58.08 34.93 58.05 34.75 58.05 34.74C58.04 34.7 58.03 34.68 57.98 34.68L57.85 34.68L57.85 34.96L57.72 34.96L57.72 34.25ZM57.96 34.56C58.05 34.56 58.07 34.49 58.07 34.45C58.07 34.36 58.01 34.36 57.97 34.36L57.85 34.36L57.85 34.56L57.96 34.56Z" />
			<path id="Layer" fill-rule="evenodd" class="shp3" d="M42.51 26.27L42.51 31.72C42.51 31.8 42.47 31.87 42.41 31.91C42.34 31.95 42.26 31.95 42.19 31.91L40.1 30.71C39.97 30.63 39.89 30.49 39.89 30.34L39.89 27.79C39.89 27.64 39.81 27.5 39.67 27.42L38.78 26.91C38.72 26.87 38.64 26.85 38.57 26.85C38.5 26.85 38.42 26.87 38.36 26.91L37.47 27.42C37.34 27.5 37.25 27.64 37.25 27.79L37.25 30.34C37.25 30.49 37.17 30.63 37.04 30.71L34.95 31.91C34.89 31.95 34.81 31.95 34.74 31.91C34.67 31.87 34.63 31.8 34.63 31.72L34.63 26.27C34.63 26.12 34.71 25.98 34.84 25.9L38.36 23.87C38.41 23.84 38.48 23.82 38.55 23.81L38.59 23.81C38.65 23.82 38.72 23.84 38.78 23.87L42.3 25.9C42.43 25.98 42.51 26.12 42.51 26.27ZM61.54 19.94C61.67 20.02 61.75 20.16 61.75 20.31L61.75 30.45C61.75 30.6 61.67 30.74 61.54 30.82L58.02 32.85C57.88 32.92 57.73 32.92 57.59 32.85L54.07 30.82C53.94 30.74 53.86 30.6 53.86 30.45L53.86 26.38C53.86 26.23 53.94 26.09 54.07 26.01L57.59 23.98C57.73 23.91 57.89 23.91 58.02 23.98L58.9 24.49C58.95 24.52 59 24.52 59.05 24.49C59.09 24.47 59.12 24.42 59.12 24.36L59.12 18.96C59.12 18.88 59.16 18.82 59.23 18.78C59.3 18.74 59.38 18.74 59.44 18.77L61.54 19.94ZM59.12 27.71C59.12 27.67 59.09 27.64 59.06 27.62L57.85 26.92C57.82 26.9 57.78 26.9 57.75 26.92L56.54 27.62C56.5 27.64 56.48 27.67 56.48 27.71L56.48 29.11C56.48 29.14 56.5 29.18 56.54 29.2L57.75 29.89C57.78 29.91 57.82 29.91 57.85 29.89L59.06 29.2C59.09 29.18 59.12 29.14 59.12 29.11L59.12 27.71ZM71.16 27.67L69.06 28.9C69 28.93 68.91 28.93 68.85 28.9C68.78 28.86 68.74 28.79 68.74 28.71L68.74 27.71C68.74 27.63 68.7 27.56 68.64 27.53L67.53 26.89C67.47 26.85 67.38 26.85 67.32 26.89L66.22 27.53C66.15 27.56 66.11 27.63 66.11 27.71L66.11 28.99C66.11 29.06 66.15 29.13 66.22 29.17L69.75 31.2C69.82 31.24 69.86 31.31 69.86 31.39C69.86 31.46 69.82 31.53 69.75 31.57L67.63 32.75C67.5 32.82 67.34 32.82 67.22 32.74L63.72 30.75C63.59 30.68 63.5 30.53 63.5 30.38L63.5 26.32C63.5 26.17 63.59 26.03 63.72 25.95L67.24 23.92C67.27 23.9 67.3 23.89 67.34 23.88C67.38 23.87 67.41 23.86 67.45 23.86C67.49 23.86 67.52 23.87 67.56 23.88C67.6 23.89 67.63 23.9 67.66 23.92L71.16 25.95C71.29 26.03 71.38 26.17 71.38 26.32L71.38 27.31C71.38 27.46 71.29 27.6 71.16 27.67Z" />
			<path id="Layer" fill-rule="evenodd" class="shp2" d="M66.72 27.88C66.7 27.89 66.68 27.92 66.68 27.95L66.68 28.72C66.68 28.75 66.7 28.78 66.72 28.79L67.4 29.18C67.43 29.2 67.46 29.2 67.48 29.18L68.16 28.79C68.18 28.78 68.2 28.75 68.2 28.72L68.2 27.95C68.2 27.92 68.18 27.89 68.16 27.88L67.48 27.49C67.46 27.47 67.43 27.47 67.4 27.49L66.72 27.88ZM51.99 26.04C51.98 26.03 51.98 26.03 51.97 26.03C51.96 26.02 51.95 26.01 51.94 26C51.94 26 51.94 26 51.93 26L51.9 25.97L49.6 24.65L49.24 24.44L48.39 23.95C48.36 23.93 48.32 23.92 48.28 23.91C48.25 23.9 48.22 23.89 48.18 23.89L48.14 23.89C48.13 23.89 48.12 23.9 48.12 23.9C48.11 23.9 48.1 23.9 48.09 23.9C48.09 23.91 48.07 23.91 48.07 23.91C48.06 23.91 48.05 23.91 48.05 23.91C48.04 23.92 48.03 23.92 48.02 23.93L48.02 23.93C48 23.93 47.99 23.94 47.98 23.95L45.28 25.5L44.49 25.96L44.48 25.96C44.35 26.04 44.27 26.18 44.27 26.33L44.27 30.37C44.27 30.47 44.3 30.56 44.35 30.63C44.36 30.64 44.37 30.66 44.39 30.67L44.39 30.68C44.4 30.68 44.42 30.69 44.42 30.71L44.43 30.71C44.44 30.73 44.46 30.73 44.48 30.74L47.53 32.51L47.98 32.76C48.02 32.78 48.05 32.8 48.09 32.81C48.1 32.81 48.11 32.81 48.12 32.81C48.13 32.81 48.14 32.82 48.15 32.82C48.16 32.82 48.17 32.82 48.18 32.82L48.19 32.82C48.21 32.82 48.22 32.82 48.24 32.82L48.25 32.82C48.27 32.82 48.28 32.81 48.29 32.81C48.3 32.81 48.3 32.81 48.3 32.81L48.31 32.81L48.35 32.79C48.35 32.79 48.35 32.79 48.36 32.79L48.41 32.76L51.9 30.74C52.01 30.68 52.09 30.57 52.11 30.45C52.11 30.43 52.12 30.4 52.12 30.38L52.12 26.33C52.11 26.22 52.07 26.12 52 26.05L51.99 26.04Z" />
	</g>
</svg>